<?xml version="1.0" encoding="UTF-8"?> <svg xmlns="http://www.w3.org/2000/svg" xmlns:xlink="http://www.w3.org/1999/xlink" id="Livello_1" data-name="Livello 1" viewBox="0 0 499.44 183.84"><defs><style> .cls-1 { fill: #366bab; } .cls-2 { fill: #868686; } .cls-3 { fill: url(#Sfumatura_senza_nome_23); } .cls-4 { fill: url(#Nuovo_campione_sfumatura_1-2); } .cls-5 { fill: #fff; } .cls-6 { fill: #62a631; } .cls-7 { fill: #62a731; } .cls-8 { fill: url(#Nuovo_campione_sfumatura_1); } </style><linearGradient id="Nuovo_campione_sfumatura_1" data-name="Nuovo campione sfumatura 1" x1="5.67" y1="85.1" x2="132.17" y2="85.1" gradientUnits="userSpaceOnUse"><stop offset="0" stop-color="#366bac"></stop><stop offset="1" stop-color="#62a631"></stop></linearGradient><linearGradient id="Sfumatura_senza_nome_23" data-name="Sfumatura senza nome 23" x1="96.59" y1="113.55" x2="167.66" y2="127.47" gradientUnits="userSpaceOnUse"><stop offset=".02" stop-color="#569a59"></stop><stop offset="1" stop-color="#62a631"></stop></linearGradient><linearGradient id="Nuovo_campione_sfumatura_1-2" data-name="Nuovo campione sfumatura 1" x1="484.49" y1="148.44" x2="321.89" y2="148.44" xlink:href="#Nuovo_campione_sfumatura_1"></linearGradient></defs><g><g><polygon class="cls-7" points="282.23 27.5 282.23 16.72 277.72 16.72 277.72 12.19 292.17 12.19 292.17 16.72 287.66 16.72 287.66 27.5 282.23 27.5"></polygon><path class="cls-5" d="M291.67,12.69v3.54h-4.51v10.78h-4.42v-10.78h-4.51v-3.54h13.45M292.67,11.69h-15.45v5.54h4.51v10.78h6.42v-10.78h4.51v-5.54h0Z"></path></g><g><polygon class="cls-7" points="302.45 27.5 302.45 21.71 298.62 21.71 298.62 27.5 293.19 27.5 293.19 12.19 298.62 12.19 298.62 17.2 302.45 17.2 302.45 12.19 307.89 12.19 307.89 27.5 302.45 27.5"></polygon><path class="cls-5" d="M307.39,12.69v14.32h-4.44v-5.79h-4.83v5.79h-4.42v-14.32h4.42v5.01h4.83v-5.01h4.44M308.39,11.69h-6.44v5.01h-2.83v-5.01h-6.42v16.32h6.42v-5.79h2.83v5.79h6.44V11.69h0Z"></path></g></g><path class="cls-5" d="M61.91,156.24H0l11.96-33.64h52.41c2.53,0,3.34-.07,3.58-.11l.24-.1h.41c.24,0,.93-.1,2.23-1.06l.13-.09c1.97-1.23,2.3-1.95,2.35-2.08l4.42-12.44c.65-1.82.73-3.2.25-3.89-.5-.71-1.9-1.11-3.93-1.11h-25.22l11.96-33.64h23.8c4.69,0,7.57-1.93,9.04-6.07l4.46-12.54c.07-.19-.16-.61-.58-1.07l-.19-.24c-.13-.2-.48-.4-.98-.54h-57.72l11.96-33.64h60.49c3.09,0,5.73.11,7.86.32,2.22.22,4.17.65,5.8,1.26,1.7.64,3.18,1.55,4.41,2.69,1.13,1.06,2.3,2.41,3.49,4.01l.07.1c1.95,3.02,3.09,6.18,3.4,9.39.31,3.19-.23,6.76-1.6,10.61l-7.88,22.18c-1.05,2.95-2.68,5.86-4.84,8.64-2.46,3.3-5.07,5.95-7.73,7.86-1.99,1.43-4.58,2.9-7.85,4.47.14.1.28.21.41.31,1.08.84,1.96,1.67,2.63,2.46,1.91,2.22,3.09,5.09,3.51,8.51.41,3.34,0,6.78-1.24,10.24l-7.88,22.18c-2.73,7.69-7.91,14.23-15.39,19.42-2.23,1.54-4.26,2.83-6.05,3.83-1.85,1.04-3.8,1.87-5.78,2.45-2,.6-4.19.97-6.51,1.12-2.21.14-4.89.21-7.97.21ZM5.67,152.24h56.25c2.99,0,5.59-.07,7.72-.2,2.02-.12,3.91-.45,5.62-.96,1.7-.5,3.37-1.21,4.96-2.11,1.68-.94,3.61-2.16,5.73-3.63,6.77-4.71,11.45-10.59,13.9-17.47l7.88-22.18c1.02-2.87,1.37-5.7,1.04-8.42-.32-2.62,1.31-4.65-.08-6.27-.5-.59-3.69-1.36-4.55-2.03-.88-.68-1.92-1.35-3.1-2l-3.58-1.95,1.18-2.9c10.51-2.13,10.69-2.63,13.07-4.33,2.33-1.67,4.64-4.03,6.88-7.03,1.92-2.48,3.35-5.01,4.25-7.56l7.88-22.18c1.17-3.29,1.64-6.28,1.39-8.88-.25-2.55-1.17-5.09-2.75-7.56-1.02-1.38-2.01-2.53-2.95-3.4-.84-.78-1.88-1.41-3.09-1.87-1.3-.49-2.91-.83-4.79-1.02-2-.2-4.51-.3-7.46-.3h-57.67l-9.12,25.64h52.54l.23.06c1.58.38,2.76,1.1,3.5,2.15,1.79,2.05,1.69,3.84,1.28,4.99l-4.46,12.54c-2.03,5.71-6.46,8.73-12.81,8.73h-20.98l-9.12,25.64h19.55c3.46,0,5.88.94,7.2,2.8,1.29,1.83,1.38,4.37.25,7.54l-4.42,12.44c-.51,1.42-1.76,2.73-3.94,4.1-1.53,1.12-2.91,1.7-4.22,1.78-.58.13-1.67.22-4.54.22H14.78l-9.12,25.64ZM68.01,122.47h0Z"></path><path class="cls-8" d="M118.58,70.74c1.92-2.48,3.35-5.01,4.25-7.56l7.88-22.18c1.17-3.29,1.64-6.28,1.39-8.88-.25-2.55-1.17-5.09-2.75-7.56-1.02-1.38-2.01-2.53-2.95-3.4-.84-.78-1.88-1.41-3.09-1.87-1.3-.49-2.91-.83-4.79-1.02-2-.2-4.51-.3-7.46-.3h-57.67l-9.12,25.64h52.54l.23.06c1.58.38,2.76,1.1,3.5,2.15,1.79,2.05,1.69,3.84,1.28,4.99l-4.46,12.54c-2.03,5.71-6.46,8.73-12.81,8.73h-20.98l-9.12,25.64h19.55c3.46,0,5.88.94,7.2,2.8,1.29,1.83,1.38,4.37.25,7.54l-4.42,12.44c-.51,1.42-1.76,2.73-3.94,4.1-1.53,1.12-2.91,1.7-4.22,1.78-.58.13-1.67.22-4.54.22H14.78l-9.12,25.64h56.25c2.99,0,5.59-.07,7.72-.2,2.02-.12,3.91-.45,5.62-.96,1.7-.5,3.37-1.21,4.96-2.11,1.68-.94,3.61-2.16,5.73-3.63,6.77-4.71,11.45-10.59,13.9-17.47l7.88-22.18c1.02-2.87,1.37-5.7,1.04-8.42-.32-2.62,1.31-4.65-.08-6.27-.5-.59-3.69-1.36-4.55-2.03-.88-.68-1.92-1.35-3.1-2l-3.58-1.95,1.18-2.9c10.51-2.13,10.69-2.63,13.07-4.33,2.33-1.67,4.64-4.03,6.88-7.03Z"></path><path class="cls-5" d="M131.41,174.29l.08.02h.08s1.96.31,1.96.31l.2.03h.21s.38.02.38.02c.49.02.98.03,1.47.03.78,0,1.44-.04,2.07-.13,2.83-.39,5.65-.89,8.38-1.37,1.57-.28,3.19-.57,4.78-.83h.03s.03,0,.03,0l2.38-.43c3.46-.57,6.96-1.17,10.35-1.76,2.21-.38,4.41-.77,6.62-1.14l2.43-.41c4.73-.81,9.46-1.62,14.19-2.43l.93-.16c3.62-.62,4.45-3.13,4.51-5.12.02-.75.07-1.5.13-2.3.05-.69.1-1.4.13-2.13.08-2.04.21-4.12.34-6.14.05-.88.11-1.76.16-2.64.17-3.01.35-6.02.54-9.03.08-1.21.14-2.42.21-3.64.09-1.57.18-3.19.29-4.77.07-1.04.15-2.08.23-3.13.22-2.93.46-5.96.53-8.99,0-.42-.04-.75-.09-1.08-.03-.18-.06-.43-.1-.8l-.02-.2-.04-.2c-.83-3.7-3.43-4.1-4.51-4.1-.53,0-.98.08-1.4.17-2.03.41-4.13.78-6.15,1.14-1.41.25-2.82.5-4.23.77-1.89.36-3.78.73-5.67,1.11-.82.16-1.65.33-2.47.49-.99.17-1.98.35-2.97.52-2.28.4-4.64.82-6.96,1.24-2.13.39-4.28.82-6.35,1.23-.91.18-1.82.36-2.73.54l-2.44.44c-2.22.4-4.44.8-6.66,1.2l6.23-8.72c.57-.8,1.16-1.61,1.75-2.41.96-1.32,1.94-2.67,2.91-4.04l22.24,6.94-6.65-9.86s-3.71-5.51-5.57-8.26l-2.2-3.26-2.75-4.07c-2.7-4-7.25-10.75-9.97-14.75l-28.56,5.71c-4.99.99-9.98,1.97-14.97,2.97-1.03.21-2.06.42-3.18.65l-1.63.34-12.46,2.57,12.03,4.13,1.24.43,1.87.64,5.29,1.76-1.04,1.35-3.12,3.98c-2.81,3.58-5.63,7.17-8.43,10.76-.96,1.23-1.79,2.63-2.54,4.29-2.18,4.82-2.24,9.41-.18,13.62,1.29,2.63,2.65,5.36,4.16,8.35,1.5,2.97,3.02,5.93,4.53,8.9l1.88,3.69c1.82,3.89,3.81,7.74,5.73,11.47.38.74.76,1.48,1.14,2.22.74,1.77,1.64,3.57,2.75,5.48l.14.29.2.41s2.49,4.07,18.35,8.1"></path><path class="cls-5" d="M189.07,55.24c1.38-1.92,2.77-3.84,4.16-5.76l1.38-1.92,4.56-6.32,2.5-3.46,1.34-1.86,6.41,8.07-11.3,7.37-11.85,7.74c.93-1.29,1.86-2.58,2.79-3.87M211.95,6.05s-2.06.44-3.06.64c-2.01.41-4.09.83-6.16,1.41-.5.1-1.01.2-1.51.3-1.25.24-2.53.5-3.81.78-.88.19-1.75.37-2.63.55-1.89.38-3.85.78-5.81,1.32-4.72.88-9.38,1.93-12.93,2.75-6.68,1.57-12.12,5.14-16.19,10.63-6.69,8.31-13.34,16.87-19.77,25.15-1.82,2.35-3.64,4.69-5.47,7.04-.73.94-1.84,2.36-1.22,4.32.62,1.96,2.35,2.48,3.49,2.83h.04s.04.02.04.02l23.61,6.57h.03s.03.02.03.02l2.72.71c1.81.48,3.63.96,5.44,1.45,1.06.29,2.12.57,3.18.85.51.14.99.2,1.47.2,1.59,0,3-.76,3.97-2.13,1-1.42,1.99-2.8,2.99-4.15l.05-.07.05-.07,1.14-1.69c.83-1.09,1.63-2.21,2.4-3.28.3-.41.6-.83.89-1.24.03-.04.06-.08.09-.12l15.69-3.14,47.47-9.5,1.46-.29.8-1.26,21.56-33.97,8.05-12.68-12.81,7.85-11.86,7.26-7.96-7.3-.23-.21-.26-.17s-2.35-2.75-11.49-3.56c-7.51-1.25-23.5,2.18-23.5,2.18"></path><path class="cls-5" d="M298.04,85.19c0-7.86,4.56-11.63,11.31-11.63,1.15,0,2.22.11,3.22.33-1.49-5.91-4.62-10.82-4.62-10.82l-.07-.07-.07-.07-27.62-25.74-1.96-1.83-2.27,1.43-42.47,26.81-3.47,2.19,2.72,3.07,20.95,29.47-7.04,2.99v-10.48l-8.7-12.27-6.44,10.45-26.56,43.06-1.21,1.97,1.34,1.88,27.71,38.85,6.47,9.07-.16-11.14-.22-16.01,24.88-4.62c14.36-2.67,19.91-12.35,20.43-13.31l23.3-42.06c-5.7-.64-9.44-4.31-9.44-11.51Z"></path><path class="cls-3" d="M146.61,76.06s7.78,11.51,11.42,16.9c2.61,3.86,8.89,13.17,8.89,13.17l-14.04-4.4c-.83-.26-1.33-.14-1.84.6-1.78,2.53-3.62,5.03-5.43,7.54l-25.86,36.21c-2.26,4.04-3.7,8.29-3.66,13,0,0-.09,3.34.1,5.6-.13-.27-.26-.55-.4-.82h0c-1-1.71-1.9-3.47-2.66-5.31-2.34-4.56-4.73-9.11-6.91-13.75-2.14-4.21-4.3-8.41-6.43-12.63-1.4-2.76-2.78-5.53-4.14-8.31-1.75-3.58-1.37-7.14.22-10.66.57-1.27,1.25-2.49,2.11-3.58,3.85-4.93,7.71-9.84,11.57-14.76,1.08-1.4,2.15-2.79,3.22-4.19.28-1.22.28-1.23-.97-1.63l-8.13-2.71c-.94-.32-1.88-.65-3.11-1.07,1.77-.36,3.27-.68,4.78-.98,4.99-.99,9.98-1.98,14.97-2.97l26.28-5.25Z"></path><path class="cls-6" d="M172.26,165.18c5.04-.86,10.07-1.72,15.11-2.59,1.22-.21,1.58-.55,1.61-1.79.04-1.49.2-2.98.26-4.47.12-2.95.33-5.89.5-8.84.18-3.02.35-6.03.54-9.05.18-2.81.3-5.62.5-8.42.28-3.98.66-7.96.75-11.95,0-.24-.08-.56-.17-1.43-.34-1.54-.89-1.47-1.81-1.28-3.46.71-6.96,1.26-10.43,1.92-2.72.51-5.43,1.07-8.14,1.6-3.31.59-6.63,1.16-9.93,1.77-3.03.56-6.05,1.17-9.08,1.76-3.85.7-7.71,1.4-11.57,2.08-.35.06-.55.23-.74.5-2.31,3.26-4.62,6.51-6.93,9.76-2.68,3.74-5.37,7.48-8.03,11.24-.94,1.33-1.68,2.8-2.28,4.31-1.88,4.72-2.18,9.42.13,14.1.42.72.81,1.45,1.36,2.08,2.18,2.49,5.02,3.76,8.19,4.39l1.96.3c1.11.04,2.23.1,3.33-.05,4.38-.6,8.71-1.47,13.07-2.19l2.41-.44c5.67-.93,11.32-1.94,16.98-2.9l2.42-.41Z"></path><path class="cls-6" d="M226.77,6.58c-8.82,2.95-14.97,10.81-14.97,10.81-2.35,3.17-2.67,3.63-5.22,7.36l-2.43,3.66c-1.77,2.45-3.53,4.89-5.3,7.33-2.36,3.26-4.71,6.52-7.07,9.78l-1.37,1.9c-2.77,3.82-5.52,7.67-8.29,11.49-1.1,1.52-2.19,3.05-3.32,4.54l-1.19,1.77c-1.04,1.39-2.04,2.8-3.04,4.22-.45.63-.95.77-1.7.57-2.88-.77-5.76-1.56-8.64-2.31l-2.72-.71-23.61-6.56q-1.49-.45-.54-1.68c8.38-10.76,16.7-21.57,25.25-32.19,3.59-4.86,8.34-7.98,14.22-9.36,4.3-.99,8.6-1.94,12.94-2.75,2.76-.78,5.6-1.25,8.4-1.86,1.79-.39,3.59-.73,5.39-1.09,3-.84,6.07-1.35,9.1-2.03l14.12-2.88Z"></path><path class="cls-6" d="M200.04,54.29l47.47-9.5,21.56-33.97-14.09,8.64-9.89-9.07s-10.43-6.59-23.09,1.9c0,0-7.21,4.49-16.85,20.72l9.4,11.83-14.5,9.46Z"></path><path class="cls-6" d="M300.63,93.41c-8.66,3.9-20.38,5.39-20.38,5.39l-45.8,6.53v-14.49l-26.56,43.06,27.71,38.85-.26-18.95,27.77-5.16c13.3-2.47,18.01-11.55,18.01-11.55l22.86-41.27c-1.31-.56-2.44-1.36-3.35-2.41Z"></path><path class="cls-6" d="M298.04,85.19c0-7.86,4.56-11.63,11.31-11.63.17,0,.33.01.49.02-1.04-4.58-4.41-8.1-4.41-8.1l-27.62-25.74-42.47,26.81,28,31.52s7.87-1.56,22.5-4.56c5.27-1.08,9.45-2.43,12.77-3.95-.37-1.28-.57-2.73-.57-4.37Z"></path><path class="cls-5" d="M466.13,114.78v9.02c-3.69-.16-4.48-2.91-4.48-5.22s.84-5.3,4.83-5.3c2.53,0,3.17.85,3.42,1.5h-3.78ZM450.46,104.56c7.09-3.41,9.3-9.28,10.3-14.62l.48-2.58h-18.44l-.34,1.77c-.7,3.65-3.32,5.51-7.79,5.51-5.77,0-8.34-2.92-8.34-9.45,0-9.45,6.27-9.45,8.34-9.45,5.41,0,6.91,2.86,7.67,5.66l.43,1.61h18.43l-.56-2.63c-.27-1.25-.59-2.4-.96-3.48h8.87v27.02c-.77-.05-1.57-.08-2.39-.08-7.77,0-12.43,2.92-14.86,6.84v-6.11h-.83ZM412.81,104.56v-5.32c1.61,2.08,3.79,3.92,6.68,5.32h-6.68ZM404,106.31h3.86v3.74c-.96-1.58-2.26-2.83-3.86-3.74M211.46,76.27h9.08c2.51,0,2.87.55,2.87,2.6s-.36,2.6-2.87,2.6h-9.08v-5.21ZM330.94,104.56v16.16c0,2.27-.4,2.88-3.21,2.88s-3.21-.61-3.21-2.88v-15.91c3.36-1.47,6.01-3.55,7.93-6.23,1.17,2.74,3.01,4.65,5.21,5.98h-6.72ZM309.35,75.73c6.06,0,9.13,3.18,9.13,9.45s-3.07,9.45-9.13,9.45-9.13-3.18-9.13-9.45c0-7.81,4.97-9.45,9.13-9.45M268,78.82c0,.98-.2,2.02-2.55,2.02h-9.98v-3.93h9.98c2.55,0,2.55,1.24,2.55,1.91M263.97,104.16v1.86c-1.67-1.34-4.18-2.28-8.01-2.28-.18,0-.33.02-.5.02v-10.08h9.4c1.85,0,2.97,0,2.97,4.83,0,1.92.08,3.91.62,5.65h-4.49ZM286.26,102.72c-.88-1.03-1.19-2.6-1.57-6.87,1.68,3.47,4.51,6.58,9.02,8.7h-5.88l-1.57-1.84ZM377.24,106.31v16.36h-11.59v-18.12h-.85c3.4-2.12,4.98-5.14,5.7-8.24v10h6.74ZM409.23,79.08h-21.75v-2.5h22.43c-.28.82-.51,1.66-.69,2.5M439.34,115.01l-5.59-7.54c.29,0,.57.01.87.01,1.68,0,3.24-.07,4.71-.19v7.72ZM387.49,93.79v-2.5h21.75c.18.84.41,1.68.69,2.5h-22.43ZM389.46,114.2h3.78c3.08,0,4.17,1.13,4.17,4.3,0,4.37-2.39,4.37-3.55,4.37h-4.4v-8.68ZM454.64,64.06v4.7c-5.25-4.97-12.78-5.87-20.01-5.87-11.49,0-18.13,3.46-21.82,8.24v-7.07h-58.76v26.17c0,4.34-.8,4.73-3.08,4.73-2.1,0-2.97,0-2.97-6v-2.18h-11.82c.03-.53.04-1.06.04-1.59,0-10.17-4.66-22.3-26.86-22.3-13.42,0-20.42,4.43-23.87,10.18-1.1-4.68-4.74-9.02-14.46-9.02h-32.54v5.97c-2.59-3.9-7.27-5.97-13.8-5.97h-30.21v42.26h16.99v-12.64h13.8c6.1,0,10.66-2.17,13.22-6.07v16.56h-6.67v18.02h8.91v-5.3h4.78c1.06,2.9,3.8,5.73,10.46,5.73,3.82,0,6.34-.94,8.01-2.28v1.86h8.91v-4.56h1.67c0,.1.01.21.01.35,0,.95.05,1.95.44,2.87l.56,1.33,7.17.02v10.32h21.05c5.95,0,8.62-2.51,9.81-5,2.12,3.8,6.84,5.73,14.13,5.73s12.26-2.03,14.3-6.02v5.3h53.43c6.7,0,10.43-2.4,12.41-5.62v5.62h23.36v-10.71l8.12,10.71h11.95v-5.6c2.26,3.6,6.68,6.32,14.89,6.32,4.34,0,7.27-.94,9.18-1.95l.48,1.22h7.33v-15.84h.33l-.35-2.48c-.49-3.48-2.37-6.13-5.45-7.89h7.84v-29.41h13.91v-12.85h-44.8Z"></path><path class="cls-1" d="M220.54,83.65h-11.25v-9.56h11.25c3.56,0,5.04,1.38,5.04,4.78s-1.49,4.78-5.04,4.78M238.64,78.87c0-7.22-3.66-12.63-13.96-12.63h-28.03v37.9h12.64v-12.64h15.98c10.19,0,13.38-6.37,13.38-12.64"></path><path class="cls-1" d="M265.45,83.01h-12.16v-8.28h12.16c3.13,0,4.73,1.59,4.73,4.09s-1.59,4.2-4.73,4.2M277.66,85.56v-.11c3.4-.85,6.05-3.56,6.05-8.65,0-6.32-3.34-10.56-12.69-10.56h-30.37v37.9h12.64v-12.64h11.57c3.18,0,5.15,1.06,5.15,7.01,0,1.75.05,3.98.74,5.63h13.85c-1.59-1.86-1.8-4.35-2.39-11.79-.37-4.09-2.18-6-4.56-6.8"></path><path class="cls-1" d="M309.35,73.56c6.8,0,11.31,3.72,11.31,11.63s-4.51,11.63-11.31,11.63-11.31-3.66-11.31-11.63,4.57-11.63,11.31-11.63M309.35,105.31c11.25,0,21.04-3.12,23.87-13.46.53,11,7.91,13.46,18.6,13.46,14.65,0,17.04-6.9,17.04-14.33v-24.74h-12.64v24c0,4.25-.74,6.9-5.26,6.9s-5.15-2.55-5.15-8.17h-12.03c.16-1.18.25-2.43.25-3.77,0-15.71-11.31-20.12-24.69-20.12s-24.69,4.41-24.69,20.12,11.31,20.12,24.69,20.12"></path><polygon class="cls-1" points="410.63 95.96 385.31 95.96 385.31 89.11 409.04 89.11 409.04 81.26 385.31 81.26 385.31 74.41 410.63 74.41 410.63 66.23 372.68 66.23 372.68 104.14 410.63 104.14 410.63 95.96"></polygon><path class="cls-1" d="M434.63,105.31c18,0,22.46-7.54,24-15.77h-14.02c-.85,4.46-4.19,7.27-9.93,7.27-8.18,0-10.51-5.36-10.51-11.63s2.6-11.63,10.51-11.63c7.17,0,9.02,4.51,9.77,7.27h14.07c-2.81-13.17-12.26-15.77-23.89-15.77-16.46,0-23.84,7.43-23.84,20.12s7.75,20.12,23.84,20.12"></path><polygon class="cls-1" points="456.81 66.23 456.81 74.73 470.72 74.73 470.72 104.14 483.36 104.14 483.36 74.73 497.27 74.73 497.27 66.23 456.81 66.23"></polygon><polygon class="cls-2" points="233.98 120.01 238.54 120.01 238.54 114.71 246.43 114.71 246.43 111.76 238.54 111.76 238.54 109.4 247.02 109.4 247.02 106.34 233.98 106.34 233.98 120.01"></polygon><g><path class="cls-2" d="M255.96,117.37c-2.43,0-4.08-1.32-4.08-4.19s1.65-4.19,4.08-4.19,4.08,1.34,4.08,4.19-1.63,4.19-4.08,4.19M255.96,105.92c-4.83,0-8.9,1.59-8.9,7.26s4.08,7.26,8.9,7.26,8.9-1.59,8.9-7.26-4.08-7.26-8.9-7.26"></path><path class="cls-2" d="M275.09,112.39h-4.38v-2.99h4.38c1.13,0,1.7.57,1.7,1.47s-.57,1.51-1.7,1.51M279.49,113.31v-.04c1.22-.31,2.18-1.28,2.18-3.12,0-2.28-1.21-3.81-4.58-3.81h-10.95v13.67h4.56v-4.56h4.17c1.15,0,1.86.38,1.86,2.53,0,.63.02,1.44.27,2.03h5c-.58-.67-.65-1.57-.86-4.25-.13-1.48-.78-2.16-1.65-2.45"></path><path class="cls-2" d="M301.24,125.25h-8.46v-4.8h8.46c1.69,0,2.78.79,2.78,2.35s-1.09,2.45-2.78,2.45M292.77,111.83h7.84c1.69,0,2.41.93,2.41,1.98s-.73,2.02-2.41,2.02h-7.84v-4ZM308.25,117.38v-.07c1.69-.63,2.91-2.55,2.91-4.76s-.99-5.82-6.71-5.82h-19.54v23.61h18.88c7.28,0,8.56-4.27,8.56-7.04,0-3.34-1.59-5.36-4.1-5.92"></path><path class="cls-2" d="M333.12,120.72c0,3.84-1.79,5.06-5.39,5.06s-5.39-1.22-5.39-5.06v-13.99h-7.87v15.27c0,6.51,4.89,9.06,13.26,9.06s13.26-2.55,13.26-9.06v-15.27h-7.87v13.99Z"></path></g><rect class="cls-2" x="344.2" y="106.74" width="7.87" height="23.61"></rect><polygon class="cls-2" points="363.48 106.74 355.61 106.74 355.61 130.34 377.86 130.34 377.86 124.86 363.48 124.86 363.48 106.74"></polygon><path class="cls-2" d="M393.86,125.05h-6.58v-13.03h5.95c4.23,0,6.35,2.08,6.35,6.48,0,3.27-1.22,6.55-5.72,6.55M396.48,106.74h-17.06v23.61h16.04c6.78,0,12.27-2.55,12.27-11.8,0-7.94-3.87-11.8-11.24-11.8"></path><rect class="cls-2" x="410.04" y="106.74" width="7.87" height="23.61"></rect><polygon class="cls-2" points="441.52 121.52 441.45 121.52 430.51 106.74 421.45 106.74 421.45 130.34 429.05 130.34 429.05 115.43 429.12 115.43 440.43 130.34 449.12 130.34 449.12 106.74 441.52 106.74 441.52 121.52"></polygon><path class="cls-2" d="M466.48,111.1c3.7,0,5.09,1.59,5.62,3.41h8.89c-.96-6.81-8.36-8.5-14.85-8.5-10.22,0-14.81,5.55-14.81,12.53,0,8.17,4.53,12.53,14.85,12.53,6.12,0,9.13-2.05,10.18-3.17l.96,2.45h3.67v-13.39h-12.7v4.89h4.83c-.76,2.68-2.78,4.13-6.64,4.13-4.86,0-7.01-3.31-7.01-7.41s2.15-7.47,7.01-7.47"></path><g><path class="cls-4" d="M476.35,158.57c-1.26,0-2.37-.12-3.28-.37-.93-.25-1.74-.63-2.41-1.12-.66-.5-1.2-1.07-1.61-1.7-.41-.62-.75-1.4-1.01-2.32l-.17-.57,6.3-.69.07.47c.11.72.36,1.27.74,1.62.37.35.8.52,1.32.52.57,0,1.03-.21,1.4-.65.39-.45.58-1.16.58-2.12s-.2-1.68-.58-2.1c-.38-.41-.88-.61-1.52-.61-.42,0-.82.1-1.21.31-.3.15-.63.44-1,.85l-.18.2-5.18-.75,1.79-10.93h13.2v5.13h-8.39l-.24,1.49c.32-.12.64-.21.96-.29.6-.14,1.2-.22,1.79-.22,1.99,0,3.63.62,4.88,1.83,1.25,1.22,1.89,2.77,1.89,4.61,0,1.28-.32,2.53-.96,3.7-.64,1.19-1.57,2.12-2.74,2.74-1.16.62-2.66.93-4.44.93ZM441.64,158.57c-1.64,0-2.99-.27-4.03-.8-1.04-.54-1.9-1.34-2.57-2.37-.48-.73-.85-1.73-1.12-2.98-.25-1.22-.38-2.58-.38-4.04,0-3.7.67-6.24,2.04-7.76,1.37-1.52,3.45-2.29,6.19-2.29,1.31,0,2.41.17,3.26.5.86.33,1.58.77,2.14,1.31.54.53.98,1.1,1.29,1.69.31.58.56,1.26.75,2.03.36,1.42.54,2.92.54,4.46,0,3.47-.61,6.06-1.81,7.71-1.24,1.69-3.36,2.55-6.31,2.55ZM441.6,142.76c-.65,0-1.1.32-1.4,1-.35.8-.53,2.35-.53,4.62s.19,3.84.58,4.64c.44.91.99,1.02,1.37,1.02s.73-.13,1.02-.41c.31-.3.55-.8.71-1.5.17-.75.26-1.97.26-3.61,0-2.97-.31-4.23-.58-4.76-.34-.68-.79-1-1.44-1ZM380.98,158.57c-1.26,0-2.37-.12-3.28-.37-.93-.25-1.74-.63-2.41-1.12-.66-.5-1.2-1.07-1.61-1.7-.41-.62-.75-1.4-1.01-2.32l-.17-.57,6.3-.69.07.47c.11.72.36,1.27.74,1.62.37.35.8.52,1.32.52.57,0,1.03-.21,1.4-.65.39-.45.58-1.16.58-2.12s-.2-1.68-.58-2.1c-.38-.41-.88-.61-1.52-.61-.42,0-.82.1-1.21.31-.3.15-.63.44-1,.85l-.18.2-5.18-.75,1.79-10.93h13.2v5.13h-8.39l-.24,1.49c.32-.12.64-.21.96-.29.6-.14,1.2-.22,1.79-.22,1.99,0,3.63.62,4.88,1.83,1.25,1.22,1.89,2.77,1.89,4.61,0,1.28-.32,2.53-.96,3.7-.64,1.19-1.57,2.12-2.74,2.74-1.16.62-2.66.93-4.44.93ZM363.2,158.57c-1.56,0-2.77-.18-3.69-.55-.92-.37-1.71-.92-2.33-1.64-.61-.71-1.08-1.6-1.41-2.65l-.18-.57,6.2-.78.09.46c.11.6.3,1.03.53,1.25.23.21.5.31.84.31.65,0,1.13-.32,1.51-1,.17-.3.38-.98.57-2.46-.35.26-.71.47-1.07.64-.72.33-1.55.49-2.47.49-1.8,0-3.34-.65-4.58-1.93-1.23-1.28-1.86-2.9-1.86-4.84,0-1.32.32-2.54.94-3.63.63-1.1,1.51-1.94,2.62-2.5,1.09-.55,2.47-.83,4.09-.83,1.94,0,3.53.34,4.73,1.02,1.21.69,2.19,1.79,2.9,3.26.7,1.46,1.06,3.38,1.06,5.73,0,3.47-.76,6.07-2.25,7.72-1.51,1.66-3.61,2.51-6.25,2.51ZM363.16,142.54c-.54,0-.98.2-1.33.6-.37.42-.55,1.09-.55,1.99s.2,1.61.58,2.06c.37.44.83.65,1.38.65.58,0,1.06-.21,1.44-.64.39-.44.59-1.09.59-1.95s-.21-1.56-.64-2.04c-.41-.46-.9-.69-1.48-.69ZM345.86,158.57c-1.56,0-2.77-.18-3.69-.55-.92-.37-1.71-.92-2.33-1.64-.61-.71-1.08-1.6-1.41-2.65l-.18-.57,6.2-.78.09.46c.11.6.3,1.03.53,1.25.23.21.5.31.84.31.65,0,1.13-.32,1.51-1,.17-.3.38-.98.57-2.46-.35.26-.71.47-1.07.64-.72.33-1.55.49-2.47.49-1.8,0-3.34-.65-4.58-1.93-1.23-1.28-1.86-2.9-1.86-4.84,0-1.32.32-2.54.94-3.63.63-1.1,1.51-1.94,2.62-2.5,1.09-.55,2.47-.83,4.09-.83,1.94,0,3.53.34,4.73,1.02,1.21.69,2.19,1.79,2.9,3.26.7,1.46,1.06,3.38,1.06,5.73,0,3.47-.76,6.07-2.25,7.72-1.51,1.66-3.61,2.51-6.25,2.51ZM345.82,142.54c-.54,0-.98.2-1.33.6-.37.42-.55,1.09-.55,1.99s.2,1.61.58,2.06c.37.44.83.65,1.38.65.58,0,1.06-.21,1.44-.64.39-.44.59-1.09.59-1.95s-.21-1.56-.64-2.04c-.41-.46-.9-.69-1.48-.69ZM450.45,158.25l.06-.56c.19-1.6.76-3.13,1.7-4.54.94-1.41,2.64-3.02,5.19-4.9,1.47-1.09,2.41-1.92,2.8-2.46.36-.49.54-.96.54-1.37s-.16-.79-.47-1.09c-.33-.31-.73-.46-1.23-.46s-.94.16-1.27.48c-.33.33-.57.99-.7,1.91l-.06.47-6.18-.5.07-.53c.21-1.52.62-2.74,1.2-3.62.59-.89,1.43-1.58,2.51-2.06,1.06-.47,2.47-.7,4.3-.7s3.36.22,4.44.66c1.1.45,1.98,1.16,2.61,2.09.63.94.96,2,.96,3.17,0,1.23-.36,2.41-1.08,3.52-.7,1.08-1.96,2.27-3.76,3.54-1.03.71-1.73,1.21-2.06,1.49-.09.08-.19.16-.29.24h7.31v5.21h-16.58ZM415.77,158.25l.06-.56c.19-1.6.76-3.13,1.7-4.54.94-1.41,2.64-3.02,5.19-4.9,1.47-1.09,2.41-1.92,2.8-2.46.36-.49.54-.96.54-1.37s-.16-.79-.47-1.09c-.33-.31-.73-.46-1.23-.46s-.94.16-1.27.48c-.33.33-.57.99-.7,1.91l-.06.47-6.18-.5.07-.53c.21-1.52.62-2.74,1.2-3.62.59-.89,1.43-1.58,2.51-2.06,1.06-.47,2.47-.7,4.3-.7s3.36.22,4.44.66c1.1.45,1.98,1.16,2.61,2.09.63.94.96,2,.96,3.17,0,1.23-.36,2.41-1.08,3.52-.7,1.08-1.96,2.27-3.76,3.54-1.03.71-1.73,1.21-2.06,1.49-.09.08-.19.16-.29.24h7.31v5.21h-16.58ZM327.33,158.25v-11.93c-.59.4-1.17.75-1.73,1.03-.81.41-1.84.8-3.06,1.17l-.65.2v-5.28l.35-.11c1.69-.55,3.02-1.2,3.94-1.96.91-.75,1.63-1.68,2.15-2.77l.13-.29h5.1v19.93h-6.23ZM398.38,153.46v-5h8.52v5h-8.52Z"></path><path class="cls-5" d="M458.89,138.82c1.82,0,3.24.21,4.25.62,1.01.42,1.81,1.05,2.39,1.91.58.86.87,1.82.87,2.89,0,1.13-.33,2.22-1,3.25-.66,1.03-1.87,2.17-3.62,3.4-1.04.72-1.74,1.22-2.09,1.51-.35.29-.76.66-1.24,1.13h8.07v4.21h-15.51c.18-1.53.72-2.97,1.62-4.32.9-1.35,2.59-2.94,5.07-4.78,1.51-1.13,2.48-1.98,2.91-2.56.42-.58.63-1.14.63-1.66,0-.57-.21-1.05-.63-1.45-.42-.4-.95-.6-1.58-.6s-1.2.21-1.62.62c-.42.42-.7,1.15-.84,2.2l-5.18-.42c.2-1.46.58-2.59,1.12-3.41.54-.82,1.31-1.44,2.29-1.88.99-.44,2.35-.65,4.09-.65M441.78,138.82c1.25,0,2.28.15,3.08.46.8.31,1.46.71,1.97,1.21.51.5.91,1.02,1.2,1.56.29.54.53,1.18.71,1.91.35,1.39.52,2.83.52,4.34,0,3.38-.57,5.85-1.71,7.41-1.14,1.57-3.11,2.35-5.9,2.35-1.57,0-2.83-.25-3.8-.75-.96-.5-1.76-1.23-2.37-2.2-.45-.69-.8-1.62-1.05-2.81-.25-1.19-.37-2.5-.37-3.94,0-3.54.64-6.01,1.91-7.43,1.27-1.41,3.21-2.12,5.82-2.12M441.63,154.54c.52,0,.98-.18,1.36-.55.39-.37.67-.95.85-1.75.18-.8.27-2.04.27-3.72,0-2.47-.21-4.13-.63-4.98-.42-.85-1.05-1.28-1.88-1.28s-1.47.43-1.85,1.3c-.38.87-.57,2.47-.57,4.82s.21,3.99.63,4.86c.42.87,1.03,1.3,1.82,1.3M424.21,138.82c1.82,0,3.24.21,4.25.62,1.01.42,1.81,1.05,2.39,1.91.58.86.87,1.82.87,2.89,0,1.13-.33,2.22-1,3.25-.66,1.03-1.87,2.17-3.62,3.4-1.04.72-1.74,1.22-2.09,1.51-.35.29-.76.66-1.24,1.13h8.07v4.21h-15.51c.18-1.53.72-2.97,1.62-4.32.9-1.35,2.59-2.94,5.07-4.78,1.51-1.13,2.48-1.98,2.91-2.56.42-.58.63-1.14.63-1.66,0-.57-.21-1.05-.63-1.45-.42-.4-.95-.6-1.58-.6s-1.2.21-1.62.62c-.42.42-.7,1.15-.84,2.2l-5.18-.42c.2-1.46.58-2.59,1.12-3.41.54-.82,1.31-1.44,2.29-1.88.99-.44,2.35-.65,4.09-.65M363.01,138.82c1.86,0,3.36.32,4.48.96,1.12.64,2.02,1.66,2.7,3.05.67,1.39,1.01,3.23,1.01,5.52,0,3.36-.71,5.82-2.12,7.38-1.41,1.56-3.37,2.34-5.88,2.34-1.48,0-2.65-.17-3.5-.51-.86-.34-1.57-.84-2.13-1.5-.57-.66-1-1.49-1.31-2.48l5.14-.65c.13.72.36,1.23.69,1.52.32.3.71.44,1.18.44.83,0,1.48-.42,1.94-1.26.34-.62.59-1.93.76-3.92-.62.63-1.25,1.1-1.9,1.4-.65.3-1.41.44-2.26.44-1.67,0-3.07-.59-4.22-1.78-1.15-1.18-1.72-2.68-1.72-4.49,0-1.24.29-2.36.88-3.38.58-1.02,1.39-1.78,2.41-2.3,1.02-.52,2.31-.78,3.86-.78M363.24,148.35c.73,0,1.33-.27,1.82-.8.48-.53.72-1.29.72-2.29s-.25-1.8-.76-2.37c-.51-.57-1.13-.86-1.85-.86-.69,0-1.25.26-1.71.77-.45.52-.68,1.29-.68,2.32s.23,1.84.7,2.39c.47.55,1.06.83,1.76.83M345.67,138.82c1.86,0,3.36.32,4.48.96,1.12.64,2.02,1.66,2.7,3.05.67,1.39,1.01,3.23,1.01,5.52,0,3.36-.71,5.82-2.12,7.38-1.41,1.56-3.37,2.34-5.88,2.34-1.48,0-2.65-.17-3.5-.51-.86-.34-1.57-.84-2.13-1.5-.57-.66-1-1.49-1.31-2.48l5.14-.65c.13.72.36,1.23.69,1.52.32.3.71.44,1.18.44.83,0,1.48-.42,1.94-1.26.34-.62.59-1.93.76-3.92-.62.63-1.25,1.1-1.9,1.4-.65.3-1.41.44-2.26.44-1.67,0-3.07-.59-4.22-1.78-1.15-1.18-1.72-2.68-1.72-4.49,0-1.24.29-2.36.88-3.38.58-1.02,1.39-1.78,2.41-2.3,1.02-.52,2.31-.78,3.86-.78M345.89,148.35c.73,0,1.33-.27,1.82-.8.48-.53.72-1.29.72-2.29s-.25-1.8-.76-2.37c-.51-.57-1.13-.86-1.85-.86-.69,0-1.25.26-1.71.77-.45.52-.68,1.29-.68,2.32s.23,1.84.7,2.39c.47.55,1.06.83,1.76.83M333.06,138.82v18.93h-5.23v-12.4c-.85.64-1.67,1.16-2.46,1.56-.79.4-1.78.78-2.98,1.14v-4.24c1.76-.57,3.13-1.25,4.1-2.04.97-.8,1.73-1.78,2.29-2.95h4.28M483.1,139.14v4.13h-8.32l-.44,2.79c.58-.27,1.14-.47,1.71-.61.56-.14,1.12-.2,1.67-.2,1.86,0,3.37.56,4.53,1.69,1.16,1.13,1.74,2.54,1.74,4.25,0,1.2-.3,2.36-.9,3.47-.6,1.11-1.44,1.96-2.54,2.54-1.1.58-2.5.88-4.21.88-1.23,0-2.28-.12-3.16-.35-.88-.23-1.62-.58-2.23-1.04-.61-.46-1.11-.98-1.49-1.57-.38-.58-.7-1.31-.95-2.18l5.23-.57c.13.84.42,1.47.89,1.91.46.44,1.02.65,1.66.65.72,0,1.31-.27,1.78-.82.47-.54.71-1.36.71-2.44s-.24-1.92-.71-2.44c-.47-.52-1.1-.77-1.89-.77-.5,0-.98.12-1.45.37-.35.18-.73.5-1.14.96l-4.41-.63,1.64-10h12.28M387.74,139.14v4.13h-8.32l-.44,2.79c.58-.27,1.14-.47,1.71-.61.56-.14,1.12-.2,1.67-.2,1.86,0,3.37.56,4.53,1.69,1.16,1.13,1.74,2.54,1.74,4.25,0,1.2-.3,2.36-.9,3.47-.6,1.11-1.44,1.96-2.54,2.54-1.1.58-2.5.88-4.21.88-1.23,0-2.28-.12-3.16-.35-.88-.23-1.62-.58-2.23-1.04-.61-.46-1.11-.98-1.49-1.57-.38-.58-.7-1.31-.95-2.18l5.23-.57c.13.84.42,1.47.89,1.91.46.44,1.02.65,1.66.65.72,0,1.31-.27,1.78-.82.47-.54.71-1.36.71-2.44s-.24-1.92-.71-2.44c-.47-.52-1.1-.77-1.89-.77-.5,0-.98.12-1.45.37-.35.18-.73.5-1.14.96l-4.41-.63,1.64-10h12.28M406.4,148.96v4h-7.52v-4h7.52M458.89,137.82c-1.9,0-3.37.24-4.5.74-1.16.51-2.08,1.27-2.72,2.24-.63.95-1.05,2.2-1.27,3.82l-.15,1.05,1.06.09,5.18.42.94.08.13-.94c.15-1.08.41-1.48.56-1.62.14-.14.4-.33.92-.33.37,0,.66.1.89.32.22.21.32.44.32.73s-.15.67-.44,1.08c-.25.34-.92,1.03-2.69,2.35-2.6,1.92-4.33,3.57-5.31,5.03-.99,1.48-1.58,3.08-1.78,4.76l-.13,1.12h17.64v-5.66l.03.11c.28.96.64,1.79,1.07,2.45.44.68,1.02,1.29,1.73,1.82.72.54,1.58.94,2.58,1.21.96.25,2.1.38,3.41.38,1.87,0,3.44-.33,4.68-.99,1.27-.67,2.26-1.67,2.95-2.95.67-1.25,1.01-2.58,1.01-3.94,0-1.98-.69-3.65-2.04-4.97-1.21-1.18-2.76-1.83-4.61-1.95h5.76v-6.13h-14.13l-.14.84-1.64,10-.16,1.01,1.01.15,4.41.63.53.08.36-.4c.41-.46.69-.66.85-.74.33-.18.65-.26.99-.26.51,0,.87.14,1.16.45.29.32.45.93.45,1.76s-.16,1.44-.46,1.79c-.28.33-.6.47-1.03.47-.39,0-.7-.12-.98-.38-.3-.28-.49-.72-.58-1.33l-.14-.95-.95.1-5.23.57-1.18.13.14.47h-6.18c.32-.23.71-.5,1.16-.82,1.88-1.33,3.15-2.53,3.9-3.68.77-1.19,1.16-2.47,1.16-3.79s-.35-2.42-1.04-3.45c-.69-1.02-1.64-1.79-2.84-2.28-1.14-.47-2.66-.7-4.63-.7h0ZM475.64,144.26h1.53c-.45.03-.9.1-1.36.21-.07.02-.14.04-.22.06l.04-.27h0ZM441.78,137.82c-2.89,0-5.1.82-6.56,2.45-1.46,1.62-2.17,4.27-2.17,8.1,0,1.5.13,2.89.4,4.15.28,1.33.67,2.36,1.19,3.15.7,1.1,1.63,1.96,2.75,2.54,1.1.57,2.54.86,4.26.86,3.12,0,5.37-.93,6.71-2.76,1.28-1.76,1.91-4.38,1.91-8,0-1.58-.19-3.12-.55-4.58-.2-.8-.46-1.52-.79-2.14-.34-.63-.8-1.24-1.38-1.81-.61-.59-1.38-1.07-2.31-1.42-.93-.36-2.05-.53-3.44-.53h0ZM441.63,153.54c-.18,0-.57,0-.92-.74-.24-.5-.53-1.67-.53-4.42s.26-3.91.49-4.42c.26-.58.56-.7.94-.7.33,0,.68.09.99.72.2.4.53,1.52.53,4.54,0,1.6-.08,2.78-.25,3.5-.17.75-.4,1.09-.57,1.25-.2.19-.41.27-.67.27h0ZM424.21,137.82c-1.9,0-3.37.24-4.5.74-1.16.51-2.08,1.27-2.72,2.24-.63.95-1.05,2.2-1.27,3.82l-.15,1.05,1.06.09,5.18.42.94.08.13-.94c.15-1.08.41-1.48.56-1.62.14-.14.4-.33.92-.33.37,0,.66.1.89.32.22.21.32.44.32.73s-.15.67-.44,1.08c-.25.34-.92,1.03-2.69,2.35-2.6,1.92-4.33,3.57-5.31,5.03-.99,1.48-1.58,3.08-1.78,4.76l-.13,1.12h17.64v-6.21h-6.34c.32-.23.71-.5,1.16-.82,1.88-1.33,3.15-2.53,3.9-3.68.77-1.19,1.16-2.47,1.16-3.79s-.35-2.42-1.04-3.45c-.69-1.02-1.64-1.79-2.84-2.28-1.14-.47-2.66-.7-4.63-.7h0ZM363.01,137.82c-1.7,0-3.15.3-4.31.89-1.2.61-2.15,1.52-2.83,2.7-.67,1.16-1.01,2.47-1.01,3.88,0,2.07.67,3.82,2,5.19.76.78,1.62,1.35,2.58,1.69l-3.32.42-1.18.15.35,1.14c.34,1.12.85,2.07,1.5,2.83.67.78,1.52,1.38,2.52,1.78.98.39,2.25.59,3.87.59,2.79,0,5.01-.9,6.62-2.67,1.58-1.74,2.38-4.45,2.38-8.05,0-2.43-.37-4.43-1.11-5.95-.76-1.57-1.8-2.74-3.1-3.48-1.27-.72-2.95-1.09-4.98-1.09h0ZM363.24,147.35c-.41,0-.72-.15-1-.47-.31-.36-.46-.95-.46-1.74s.15-1.34.43-1.66c.26-.3.56-.43.96-.43.44,0,.79.17,1.11.52.34.39.51.94.51,1.7s-.16,1.27-.47,1.61c-.29.33-.63.47-1.07.47h0ZM362.34,152.53c.78-.05,1.5-.23,2.13-.52.07-.03.14-.06.21-.1-.14.73-.27,1.08-.36,1.24-.36.65-.74.74-1.06.74-.22,0-.37-.05-.5-.18-.06-.05-.25-.27-.38-.97l-.04-.21h0ZM345.67,137.82c-1.7,0-3.15.3-4.31.89-1.2.61-2.15,1.52-2.83,2.7-.67,1.16-1.01,2.47-1.01,3.88,0,2.07.67,3.82,2,5.19.76.78,1.62,1.35,2.58,1.69l-3.32.42-1.18.15.35,1.14c.34,1.12.85,2.07,1.5,2.83.67.78,1.52,1.38,2.52,1.78.98.39,2.25.59,3.87.59,2.79,0,5.01-.9,6.62-2.67,1.58-1.74,2.38-4.45,2.38-8.05,0-2.43-.37-4.43-1.11-5.95-.76-1.57-1.8-2.74-3.1-3.48-1.27-.72-2.95-1.09-4.98-1.09h0ZM345.89,147.35c-.41,0-.72-.15-1-.47-.31-.36-.46-.95-.46-1.74s.15-1.34.43-1.66c.26-.3.56-.43.96-.43.44,0,.79.17,1.11.52.34.39.51.94.51,1.7s-.16,1.27-.47,1.61c-.29.33-.63.47-1.07.47h0ZM345,152.53c.78-.05,1.5-.23,2.13-.52.07-.03.14-.06.21-.1-.14.73-.27,1.08-.36,1.24-.36.65-.74.74-1.06.74-.22,0-.37-.05-.5-.18-.06-.05-.25-.27-.38-.97l-.04-.21h0ZM334.06,137.82h-5.91l-.27.57c-.48,1.03-1.16,1.9-2.01,2.6-.87.71-2.14,1.34-3.77,1.87l-.69.22v6.32l1.29-.39c1.24-.38,2.3-.78,3.13-1.21.33-.17.67-.35,1.01-.56v11.51h7.23v-20.93h0ZM388.74,138.14h-14.13l-.14.84-1.64,10-.16,1.01,1.01.15,4.41.63.53.08.36-.4c.41-.46.69-.66.85-.74.33-.18.65-.26.99-.26.51,0,.87.14,1.16.45.29.32.45.93.45,1.76s-.16,1.44-.46,1.79c-.28.33-.6.47-1.03.47-.39,0-.7-.12-.98-.38-.3-.28-.49-.72-.58-1.33l-.14-.95-.95.1-5.23.57-1.18.13.33,1.14c.28.96.64,1.79,1.07,2.45.44.68,1.02,1.29,1.73,1.82.72.54,1.58.94,2.58,1.21.96.25,2.1.38,3.41.38,1.87,0,3.44-.33,4.68-.99,1.27-.67,2.26-1.67,2.95-2.95.67-1.25,1.01-2.58,1.01-3.94,0-1.98-.69-3.65-2.04-4.97-1.21-1.18-2.76-1.83-4.61-1.95h5.76v-6.13h0ZM380.28,144.26h1.53c-.45.03-.9.1-1.36.21-.07.02-.14.04-.22.06l.04-.27h0ZM407.4,147.96h-9.52v6h9.52v-6h0Z"></path></g></svg> 